<?xml version="1.0" encoding="utf-8"?>
<!-- Generator: Adobe Illustrator 23.0.1, SVG Export Plug-In . SVG Version: 6.00 Build 0)  -->
<svg version="1.1" id="Layer_1" xmlns="http://www.w3.org/2000/svg" xmlns:xlink="http://www.w3.org/1999/xlink" x="0px" y="0px"
	 viewBox="0 0 841.9 595.3" style="enable-background:new 0 0 841.9 595.3;" xml:space="preserve">
<style type="text/css">
	.st0{fill:#07569E;}
</style>
<g>
	<path class="st0" d="M6,204.5h49.8L67.5,259l12.1,57.2L91.1,259l12.1-54.5h35.5L99.6,362.6h-49L6,204.5z"/>
	<path class="st0" d="M164,360.8c-7.4-3.1-13.3-7.3-17.5-12.8c-4.3-5.5-7.4-11.7-9.4-18.5c-2-6.9-3-14.5-3-23
		c0-20.1,5.1-35.4,15.4-45.7c10.3-10.3,24.6-15.5,43-15.5c17.7,0,30.4,4.2,38,12.5c7.6,8.3,11.5,21.7,11.5,40.1v15h-61.6v2.6
		c0,5.3,0.6,9.7,1.7,13.1c1.1,3.4,2.8,5.9,4.9,7.6c2.2,1.6,4.4,2.7,6.6,3.2c2.2,0.5,5,0.8,8.2,0.8c3.1,0,6.5-0.4,10.2-1.2
		c3.6-0.8,7.3-2.1,11.1-3.8c3.7-1.7,6.9-3.7,9.4-6.1l8,13.6c-3.3,5.4-8.2,9.9-14.6,13.6c-6.4,3.6-12.6,6.1-18.5,7.4
		c-5.9,1.3-11.6,1.9-17,1.9C180.2,365.4,171.5,363.9,164,360.8z M199.3,268.6c-1.2-4.8-3.3-7.1-6.5-7.1c-2.7,0-4.9,0.5-6.6,1.4
		c-1.7,0.9-3,2.4-3.8,4.5c-0.8,2-1.3,4.1-1.6,6.2c-0.2,2.1-0.3,4.8-0.3,8v11.3h20.5C201.1,281.4,200.5,273.3,199.3,268.6z"/>
	<path class="st0" d="M256.6,362.6v-87.3l-8.1-5v-14.4l29-8h22.9v17.4l1.6-2c1.1-1.4,2.7-3.1,4.8-5.1c2.1-2,4.5-3.9,7.1-5.9
		c2.6-1.9,5.7-3.6,9.4-5c3.6-1.4,7.2-2.1,10.7-2.1c12.3,0,21,3.4,26.1,10.1c5.1,6.7,7.6,18,7.6,33.9c0,0.5,0,1.3,0,2.4
		c-0.1,1.1-0.1,1.9-0.1,2.6v68.4h-44.5v-72.3c0.3-8.5-3.3-12.7-10.8-12.7c-0.5,0-1.1,0-1.6,0.1c-0.5,0.1-0.9,0.2-1.3,0.3
		c-0.4,0.1-0.9,0.2-1.3,0.5c-0.5,0.2-0.9,0.4-1.3,0.5c-0.4,0.1-0.8,0.4-1.2,0.7c-0.5,0.3-0.8,0.6-1.1,0.7c-0.3,0.2-0.7,0.5-1.1,0.9
		c-0.5,0.4-0.9,0.7-1.1,0.9c-0.2,0.2-0.6,0.5-1.1,0.9c-0.5,0.4-0.8,0.7-1,0.9v78.6H256.6z"/>
	<path class="st0" d="M390.7,354.5c-4.8-7.3-7.2-19.6-7.2-37v-45.9h-9.3v-18.7l15.9-5l13.8-31.4h23.7v31.4h22.1v23.7h-22.5v50.2
		c0,7.2,1,12,3.1,14.3c2.1,2.3,5.3,3.5,9.6,3.5c1.9,0,3.6-0.2,5.1-0.7c1.5-0.4,2.8-1.1,3.8-1.9v18.3c-1.3,1.3-3.1,2.7-5.3,4
		c-2.2,1.3-5.7,2.6-10.7,4s-10.5,2-16.7,2C404,365.4,395.6,361.8,390.7,354.5z"/>
	<path class="st0" d="M518.4,352.1c-0.9,1.1-2.3,2.3-4.1,3.8c-1.8,1.4-4,2.9-6.3,4.3c-2.4,1.4-5.3,2.7-8.7,3.7
		c-3.4,1-6.9,1.6-10.5,1.6c-24.3,0-36.4-12-36.4-36c0-4.7,0.9-9,2.6-12.9c1.7-3.9,3.9-7.2,6.6-9.9c2.7-2.7,5.9-5.1,9.7-7.2
		c3.8-2.1,7.6-3.8,11.4-5c3.8-1.2,7.8-2.2,12.1-3c4.2-0.8,8-1.3,11.3-1.6c3.3-0.3,6.5-0.4,9.6-0.4v-2.4c0-5.5-1.5-9.4-4.4-11.6
		c-2.9-2.2-7.6-3.4-14.1-3.4c-5.6,0-11.4,0.7-17.4,2c-6,1.3-10.7,2.9-14.2,4.7l-8.6-18.3c6.1-4,14.1-7.4,23.9-10.5
		c9.8-3,19.8-4.5,29.9-4.5c9,0,16.4,0.9,22.3,2.6c5.8,1.8,10.6,4.7,14.2,8.9c3.6,4.2,6.2,9.5,7.8,15.9c1.5,6.4,2.3,14.6,2.3,24.5
		v54.9l3.8,10.5h-37l-4.3-12L518.4,352.1z M512.4,340.9c1-0.5,2.1-1.2,3.2-2.2v-32.4c-5.5,0-9.8,1.5-13.1,4.5c-3.2,3-4.9,7.7-4.9,14
		c0,11.2,3.8,16.9,11.5,16.9C510.3,341.7,511.4,341.4,512.4,340.9z"/>
	<path class="st0" d="M574.4,275.3l-8.1-5v-14.4l29-8h22.5v114.6h-43.4V275.3z M571.8,213.3v-4.7l22.1-22.1h5.1l23.1,22.1v4.7
		L599,235.5h-5.1L571.8,213.3z"/>
	<path class="st0" d="M636.5,362.6v-87.3l-8.1-5v-15.2l29-7.1h10.9l3.9,32.1c3.7-22,15.5-33,35.5-33c2.2,0,4.6,0.4,7,1.2l-4.6,48
		c-1.9-1.7-6-2.6-12.4-2.6c-9.2,0-15.1,2.4-17.7,7.3v61.6H636.5z"/>
	<path class="st0" d="M748.8,360.8c-7.4-3.1-13.3-7.3-17.5-12.8c-4.3-5.5-7.4-11.7-9.4-18.5c-2-6.9-3-14.5-3-23
		c0-20.1,5.1-35.4,15.4-45.7c10.3-10.3,24.6-15.5,43-15.5c17.7,0,30.4,4.2,38,12.5c7.6,8.3,11.5,21.7,11.5,40.1v15h-61.6v2.6
		c0,5.3,0.6,9.7,1.7,13.1c1.1,3.4,2.8,5.9,4.9,7.6c2.2,1.6,4.4,2.7,6.6,3.2c2.2,0.5,5,0.8,8.2,0.8c3.1,0,6.5-0.4,10.2-1.2
		c3.6-0.8,7.3-2.1,11.1-3.8c3.7-1.7,6.9-3.7,9.4-6.1l8,13.6c-3.3,5.4-8.2,9.9-14.6,13.6c-6.4,3.6-12.6,6.1-18.5,7.4
		c-5.9,1.3-11.6,1.9-17,1.9C765,365.4,756.2,363.9,748.8,360.8z M784.1,268.6c-1.2-4.8-3.3-7.1-6.5-7.1c-2.7,0-4.9,0.5-6.6,1.4
		c-1.7,0.9-3,2.4-3.8,4.5c-0.8,2-1.3,4.1-1.6,6.2c-0.2,2.1-0.3,4.8-0.3,8v11.3h20.5C785.8,281.4,785.2,273.3,784.1,268.6z"/>
</g>
</svg>
