<svg xmlns="http://www.w3.org/2000/svg" viewBox="0 0 188.1 50.31"><defs><style>.cls-1,.cls-2{fill:#919191;}.cls-2{fill-rule:evenodd;}</style></defs><title>Asset 41toshiba</title><g id="Layer_2" data-name="Layer 2"><g id="Layer_1-2" data-name="Layer 1"><path class="cls-1" d="M140.37,13.85,142.65,6h0l2.27,7.83Zm7.23,9.25h6.67L147.39.41h-9.47L131.05,23.1h6.66l1.22-4.19h7.46l1.21,4.19"/><path class="cls-1" d="M29,11.75c0-1.24,0-2,.06-2.53.17-3.5,1.56-3.91,4.24-3.91s4.07.41,4.25,3.91c0,.55.06,1.29.06,2.53s0,2-.06,2.54c-.18,3.49-1.56,3.91-4.25,3.91s-4.07-.41-4.24-3.91C29,13.74,29,13,29,11.75m4.3,11.76c6.85,0,10.15-1.2,10.62-7.38.11-1.47.13-3,.14-4.37s0-2.89-.14-4.37C43.41,1.21,40.11,0,33.26,0S23.12,1.21,22.65,7.38c-.11,1.48-.13,3-.13,4.37s0,2.9.13,4.37c.47,6.18,3.77,7.38,10.61,7.38"/><polyline class="cls-2" points="0 0.41 0 6.07 6.78 6.07 6.78 23.1 13.57 23.1 13.57 6.07 20.35 6.07 20.35 0.41 0 0.41"/><polyline class="cls-2" points="104.1 0.41 97.66 0.41 97.66 23.1 104.1 23.1 104.1 0.41"/><polyline class="cls-2" points="78.2 8.7 78.2 0.41 71.79 0.41 71.79 23.1 78.2 23.1 78.2 14.36 85.64 14.36 85.64 23.1 92.03 23.1 92.03 0.41 85.64 0.41 85.64 8.7 78.2 8.7"/><path class="cls-1" d="M116.21,5.6h4.44a1.66,1.66,0,0,1,1.88,1.87,1.71,1.71,0,0,1-1.88,1.83h-4.44V5.6Zm0,8.18h4.44c1.8,0,2.17.79,2.17,2.07a1.9,1.9,0,0,1-2.17,2.06h-4.44V13.78Zm9.07-2.54c2.85-.73,3.69-2.44,3.69-4.9,0-5-3.14-5.93-7.6-5.93H109.82V23.1h12.13c5.58,0,7.46-2.41,7.46-6.11,0-2.58-.59-4.86-4.13-5.75"/><path class="cls-1" d="M47.75,15.65h6.1c0,1.11.15,1.84.68,2.24s1.15.62,3,.62,3.64,0,3.64-2.15c0-1.69-1.06-2.06-3-2.17-4.86-.26-6.62-.4-8.43-1.75-1.23-.91-1.87-2.7-1.87-5.12,0-4.11,1.43-5.55,3.5-6.55s10.5-1,12.75,0C66.88,2.09,67,4.91,67,7.53H60.87c0-1.33-.31-1.71-.56-2a4.12,4.12,0,0,0-2.83-.67c-1.57,0-3.39.07-3.39,2,0,1.45.62,2.07,2.28,2.17,2.27.15,6.75.29,8.35,1.23,2.24,1.32,2.82,3.12,2.82,6,0,4.22-1.51,5.46-3.61,6.39-2.43,1.08-10.54,1.08-13.18-.08-3-1.28-3-3.85-3-7"/><polyline class="cls-1" points="159.93 34.42 164.2 34.42 170.62 40.48 164.19 46.56 159.93 46.56 166.36 40.48 159.93 34.42"/><polyline class="cls-1" points="168.67 34.42 172.94 34.42 179.36 40.48 172.93 46.56 168.67 46.56 175.09 40.48 168.67 34.42"/><polyline class="cls-1" points="177.41 34.42 181.67 34.42 188.1 40.48 181.67 46.56 177.4 46.56 183.84 40.48 177.41 34.42"/><polyline class="cls-1" points="0.57 34.48 3.3 34.48 3.3 44.27 8.11 44.27 8.11 46.56 0.57 46.56 0.57 34.48"/><path class="cls-1" d="M15,41.17a1.59,1.59,0,0,0-1.52-1.78,1.81,1.81,0,0,0-1.7,1.78ZM11.78,43c.09,1.15,1.2,1.68,2.47,1.68a7.29,7.29,0,0,0,2.42-.38L17,46.19a8.28,8.28,0,0,1-3.17.55c-3,0-4.68-1.72-4.68-4.48a4.4,4.4,0,0,1,4.43-4.68c2.83,0,3.91,2.21,3.91,4.37A7,7,0,0,1,17.43,43l-5.65,0"/><path class="cls-1" d="M23.81,42.42c-1.43,0-2.55.34-2.55,1.38a1,1,0,0,0,1.08,1,1.51,1.51,0,0,0,1.42-1,1.94,1.94,0,0,0,.05-.46v-1Zm2.64,2a11.26,11.26,0,0,0,.14,2.12H24.13L24,45.68h-.05a3.16,3.16,0,0,1-2.51,1.07,2.69,2.69,0,0,1-2.83-2.69c0-2.28,2-3.35,5.14-3.35v-.11c0-.47-.25-1.13-1.59-1.13a5.14,5.14,0,0,0-2.42.64l-.5-1.74a7.21,7.21,0,0,1,3.41-.79c2.92,0,3.84,1.72,3.84,3.78v3.06"/><path class="cls-1" d="M34.39,41.53a2.3,2.3,0,0,0,0-.5,1.62,1.62,0,0,0-1.59-1.33c-1.26,0-1.88,1.11-1.88,2.49s.73,2.4,1.87,2.4a1.61,1.61,0,0,0,1.6-1.31,3.25,3.25,0,0,0,.05-.61V41.53Zm2.72-7.69V43.95c0,1,0,2,.07,2.62H34.76l-.11-1.27H34.6a3.06,3.06,0,0,1-2.74,1.47c-2.08,0-3.75-1.77-3.75-4.5,0-2.94,1.83-4.66,3.93-4.66a2.69,2.69,0,0,1,2.31,1h0V33.83h2.72"/><path class="cls-1" d="M39.3,37.8H42v8.77H39.3V37.8Zm1.35-1.15A1.45,1.45,0,1,1,42.2,35.2a1.43,1.43,0,0,1-1.56,1.45h0"/><path class="cls-1" d="M44.21,40.59c0-1.1,0-2-.07-2.8h2.37L46.63,39h.05a3.15,3.15,0,0,1,2.71-1.42c1.79,0,3.14,1.2,3.14,3.78v5.18H49.8V41.71c0-1.13-.39-1.9-1.38-1.9a1.5,1.5,0,0,0-1.4,1,2,2,0,0,0-.09.68v5.06H44.21v-6"/><path class="cls-1" d="M60.29,41.36a2.46,2.46,0,0,0-.05-.5,1.49,1.49,0,0,0-1.47-1.2c-1,0-1.79.9-1.79,2.49,0,1.31.64,2.33,1.77,2.33a1.49,1.49,0,0,0,1.45-1.1,2.55,2.55,0,0,0,.09-.73V41.36ZM63,45.29a5,5,0,0,1-1.35,3.95,5.33,5.33,0,0,1-3.55,1.07A7,7,0,0,1,55,49.65l.54-2.08a5.33,5.33,0,0,0,2.55.66,2.08,2.08,0,0,0,2.28-2.31v-.56h0a2.84,2.84,0,0,1-2.37,1.13c-2.17,0-3.71-1.76-3.71-4.27,0-2.83,1.81-4.62,4-4.62a2.64,2.64,0,0,1,2.4,1.24h0l.09-1h2.36c0,.57-.07,1.31-.07,2.62v4.88"/><polyline class="cls-1" points="71.77 46.56 69.05 46.56 69.05 34.48 71.77 34.48 71.77 46.56"/><path class="cls-1" d="M74,40.59c0-1.1,0-2-.07-2.8h2.37L76.47,39h.05a3.15,3.15,0,0,1,2.71-1.42c1.79,0,3.14,1.2,3.14,3.78v5.18H79.64V41.71c0-1.13-.39-1.9-1.38-1.9a1.5,1.5,0,0,0-1.4,1,2,2,0,0,0-.09.68v5.06H74v-6"/><path class="cls-1" d="M84.55,40.59c0-1.1,0-2-.07-2.8h2.37L87,39H87a3.15,3.15,0,0,1,2.71-1.42c1.79,0,3.14,1.2,3.14,3.78v5.18H90.15V41.71c0-1.13-.39-1.9-1.38-1.9a1.5,1.5,0,0,0-1.4,1,1.94,1.94,0,0,0-.09.68v5.06H84.55v-6"/><path class="cls-1" d="M99.15,44.81c1.08,0,1.74-1.06,1.74-2.64,0-1.29-.5-2.62-1.74-2.62s-1.79,1.33-1.79,2.64c0,1.49.63,2.62,1.77,2.62Zm-.05,2a4.29,4.29,0,0,1-4.54-4.52,4.38,4.38,0,0,1,4.7-4.64,4.26,4.26,0,0,1,4.46,4.5,4.39,4.39,0,0,1-4.61,4.66h0"/><path class="cls-1" d="M107.43,37.8l1.18,4.07c.22.74.36,1.44.5,2.14h.06c.14-.72.28-1.38.48-2.14l1.13-4.07h2.87l-3.26,8.77h-2.73l-3.19-8.77h3"/><path class="cls-1" d="M119.57,42.42c-1.43,0-2.54.34-2.54,1.38a1,1,0,0,0,1.08,1,1.51,1.51,0,0,0,1.42-1,2,2,0,0,0,.05-.46v-1Zm2.64,2a11.42,11.42,0,0,0,.14,2.12h-2.46l-.16-.88h-.06a3.15,3.15,0,0,1-2.51,1.07,2.69,2.69,0,0,1-2.83-2.69c0-2.28,2-3.35,5.14-3.35v-.11c0-.47-.25-1.13-1.6-1.13a5.13,5.13,0,0,0-2.42.64l-.5-1.74a7.22,7.22,0,0,1,3.41-.79c2.92,0,3.84,1.72,3.84,3.78v3.06"/><path class="cls-1" d="M127.42,35.41V37.8h2v2h-2V43c0,1.06.27,1.54,1.08,1.54a3.36,3.36,0,0,0,.8-.07l0,2.06a5.69,5.69,0,0,1-1.76.23A2.92,2.92,0,0,1,125.5,46a3.64,3.64,0,0,1-.75-2.6V39.8h-1.17v-2h1.17V36.15l2.67-.74"/><path class="cls-1" d="M131,37.8h2.72v8.77H131V37.8Zm1.34-1.15a1.45,1.45,0,1,1,1.56-1.45,1.43,1.43,0,0,1-1.56,1.45h0"/><path class="cls-1" d="M139.95,44.81c1.07,0,1.74-1.06,1.74-2.64,0-1.29-.5-2.62-1.74-2.62s-1.79,1.33-1.79,2.64c0,1.49.63,2.62,1.78,2.62Zm-.06,2a4.29,4.29,0,0,1-4.53-4.52,4.38,4.38,0,0,1,4.69-4.64,4.26,4.26,0,0,1,4.47,4.5,4.39,4.39,0,0,1-4.61,4.66h0"/><path class="cls-1" d="M146,40.59c0-1.1,0-2-.07-2.8h2.37l.13,1.22h.05a3.15,3.15,0,0,1,2.71-1.42c1.79,0,3.14,1.2,3.14,3.78v5.18h-2.72V41.71c0-1.13-.39-1.9-1.38-1.9a1.5,1.5,0,0,0-1.4,1,1.94,1.94,0,0,0-.09.68v5.06H146v-6"/></g></g></svg>