<svg xmlns="http://www.w3.org/2000/svg" viewBox="0 0 139 56.47"><defs><style>.cls-1{fill:#fefefe;fill-rule:evenodd;}</style></defs><g id="Layer_2" data-name="Layer 2"><g id="Layer_1-2" data-name="Layer 1"><path class="cls-1" d="M96.47,49.25h6.08v2.08H96.47v3h7.17v2.17H94.08V44h9.56v2.17H96.47Zm15.45,7.22h-2.19V44h5.43a5.69,5.69,0,0,1,3.73,1.13,4,4,0,0,1,1.36,3.16,4.24,4.24,0,0,1-.68,2.4,4,4,0,0,1-1.8,1.45l2.92,3.74,0,.12v.48h-2.51l-3-3.83h-3.15v3.83ZM117.15,50a2,2,0,0,0,.65-1.59,2,2,0,0,0-.68-1.62,3.12,3.12,0,0,0-2-.58h-3v4.36h3.11A3,3,0,0,0,117.15,50ZM12.32,56.47H10.13V48.88l-3.55,3.7H6l-3.56-3.7v7.59H0V44H.84l5.42,5.56L11.71,44h.8V56.47Zm6.93-7.22h6.08v2.08H19.25v3h7.17v2.17H16.87V44h9.55v2.17H19.25Zm13.41,7.22H30.47V44H35.9a5.72,5.72,0,0,1,3.74,1.13A3.94,3.94,0,0,1,41,48.28a4.24,4.24,0,0,1-.67,2.4,4.1,4.1,0,0,1-1.8,1.45l2.91,3.74,0,.12v.48H39l-3-3.83H32.86v3.83ZM37.9,50a2.26,2.26,0,0,0,0-3.21,3.1,3.1,0,0,0-2-.58h-3v4.36H36A3,3,0,0,0,37.9,50Zm9.59-6V56.47H45.1V44Zm7.65,2.17H51.07V44H61.59v2.17H57.53V56.47H55.14Zm26.33,0H77.41V44H87.93v2.17H83.86V56.47H81.47ZM62.89,56.47,69.17,44h.62l6.32,12.48H73.4C72,53.73,70.75,51,69.49,48.21c-1.28,2.77-2.58,5.51-3.91,8.26Zm75.91,0h-2.18V48.88L133,52.58h-.63l-3.68-3.7v7.59h-2.38V44h.84l5.53,5.56L138.2,44h.8V56.47Z"/><path class="cls-1" d="M51.07,0h2.55L69.5,15.85,85.38,0h2.55V35.08H85.38L73.22,22.93h0l-1.8-1.81,1.8-1.8h0l9.6-9.58V25.33l-2.55-2.55V15.89L75,21.13,85.38,31.48V3.6L69.5,19.46,53.62,3.6V31.48L64,21.13l-5.25-5.24v6.89l-2.55,2.55V9.75l9.6,9.58h0l1.8,1.8-1.8,1.81h0L53.62,35.08H51.07Z"/></g></g></svg>